<svg width="19" height="18" viewBox="0 0 19 18" fill="none" xmlns="http://www.w3.org/2000/svg">
<path d="M14 17.4997H4.83329V6.66634L10.6666 0.833008L11.7083 1.87467C11.8055 1.9719 11.8854 2.10384 11.9479 2.27051C12.0104 2.43717 12.0416 2.5969 12.0416 2.74967V3.04134L11.125 6.66634H16.5C16.9444 6.66634 17.3333 6.83301 17.6666 7.16634C18 7.49967 18.1666 7.88856 18.1666 8.33301V9.99967C18.1666 10.0969 18.1527 10.2011 18.125 10.3122C18.0972 10.4233 18.0694 10.5275 18.0416 10.6247L15.5416 16.4997C15.4166 16.7775 15.2083 17.0136 14.9166 17.208C14.625 17.4025 14.3194 17.4997 14 17.4997ZM6.49996 15.833H14L16.5 9.99967V8.33301H8.99996L10.125 3.74967L6.49996 7.37467V15.833ZM4.83329 6.66634V8.33301H2.33329V15.833H4.83329V17.4997H0.666626V6.66634H4.83329Z" fill="#A2A2A2"/>
</svg>
